<svg version="1.1" xmlns="http://www.w3.org/2000/svg" xmlns:xlink="http://www.w3.org/1999/xlink" stroke-linecap="round" stroke-linejoin="round" stroke-width="0" fill-rule="evenodd" clip-rule="evenodd" id="P55AUkp-Wqv-3mLsmqFH_top" viewBox="60000 -136000 55000 90000" width="55mm" height="90mm" class="w-100 h-100"><defs><style>.P55AUkp-Wqv-3mLsmqFH_fr4 {color: #666666;}
.P55AUkp-Wqv-3mLsmqFH_cu {color: #cccccc;}
.P55AUkp-Wqv-3mLsmqFH_cf {color: #cc9933;}
.P55AUkp-Wqv-3mLsmqFH_sm {color: #004200; opacity: 0.75;}
.P55AUkp-Wqv-3mLsmqFH_ss {color: #ffffff;}
.P55AUkp-Wqv-3mLsmqFH_sp {color: #999999;}
.P55AUkp-Wqv-3mLsmqFH_out {color: #000000;}</style><circle cx="0" cy="0" r="1750" id="MdRQUhY9DVKVpilSfR58_pad-10"/><circle cx="0" cy="0" r="2000" id="MdRQUhY9DVKVpilSfR58_pad-11"/><polygon points="-800,830 -480,1150 800,1150 800,-1150 -800,-1150" id="MdRQUhY9DVKVpilSfR58_pad-12"/><rect x="-800" y="-1150" width="1600" height="2300" rx="800" ry="800" id="MdRQUhY9DVKVpilSfR58_pad-13"/><rect x="-1150" y="-900" width="2300" height="1800" id="MdRQUhY9DVKVpilSfR58_pad-14"/><rect x="-1150" y="-900" width="2300" height="1800" rx="900" ry="900" id="MdRQUhY9DVKVpilSfR58_pad-15"/><rect x="-1200" y="-800" width="2400" height="1600" id="MdRQUhY9DVKVpilSfR58_pad-16"/><rect x="-1200" y="-800" width="2400" height="1600" rx="800" ry="800" id="MdRQUhY9DVKVpilSfR58_pad-17"/><circle cx="0" cy="0" r="1000" id="MdRQUhY9DVKVpilSfR58_pad-18"/><circle cx="0" cy="0" r="800" id="MdRQUhY9DVKVpilSfR58_pad-19"/><rect x="-800" y="-800" width="1600" height="1600" rx="800" ry="800" id="MdRQUhY9DVKVpilSfR58_pad-20"/><rect x="-850" y="-850" width="1700" height="1700" id="MdRQUhY9DVKVpilSfR58_pad-21"/><rect x="-850" y="-850" width="1700" height="1700" rx="850" ry="850" id="MdRQUhY9DVKVpilSfR58_pad-22"/><circle cx="0" cy="0" r="2000" id="WhLy99nrf3de8Hk_r1JS_pad-10"/><polygon points="-800,830 -480,1150 800,1150 800,-1150 -800,-1150" id="WhLy99nrf3de8Hk_r1JS_pad-11"/><rect x="-800" y="-1150" width="1600" height="2300" rx="800" ry="800" id="WhLy99nrf3de8Hk_r1JS_pad-12"/><rect x="-1150" y="-900" width="2300" height="1800" id="WhLy99nrf3de8Hk_r1JS_pad-13"/><rect x="-1150" y="-900" width="2300" height="1800" rx="900" ry="900" id="WhLy99nrf3de8Hk_r1JS_pad-14"/><rect x="-1200" y="-800" width="2400" height="1600" id="WhLy99nrf3de8Hk_r1JS_pad-15"/><rect x="-1200" y="-800" width="2400" height="1600" rx="800" ry="800" id="WhLy99nrf3de8Hk_r1JS_pad-16"/><circle cx="0" cy="0" r="1000" id="WhLy99nrf3de8Hk_r1JS_pad-17"/><circle cx="0" cy="0" r="800" id="WhLy99nrf3de8Hk_r1JS_pad-18"/><rect x="-800" y="-800" width="1600" height="1600" rx="800" ry="800" id="WhLy99nrf3de8Hk_r1JS_pad-19"/><rect x="-850" y="-850" width="1700" height="1700" id="WhLy99nrf3de8Hk_r1JS_pad-20"/><rect x="-850" y="-850" width="1700" height="1700" rx="850" ry="850" id="WhLy99nrf3de8Hk_r1JS_pad-21"/><circle cx="0" cy="0" r="400" id="WhLy99nrf3de8Hk_r1JS_pad-22"/><circle cx="0" cy="0" r="1750" id="Zeo4tNDnqIp6uSjFvtcE_pad-14"/><circle cx="0" cy="0" r="2000" id="Zeo4tNDnqIp6uSjFvtcE_pad-15"/><polygon points="-800,830 -480,1150 800,1150 800,-1150 -800,-1150" id="Zeo4tNDnqIp6uSjFvtcE_pad-16"/><rect x="-800" y="-1150" width="1600" height="2300" rx="800" ry="800" id="Zeo4tNDnqIp6uSjFvtcE_pad-17"/><rect x="-1150" y="-900" width="2300" height="1800" id="Zeo4tNDnqIp6uSjFvtcE_pad-18"/><rect x="-1150" y="-900" width="2300" height="1800" rx="900" ry="900" id="Zeo4tNDnqIp6uSjFvtcE_pad-19"/><rect x="-1200" y="-800" width="2400" height="1600" id="Zeo4tNDnqIp6uSjFvtcE_pad-20"/><rect x="-1200" y="-800" width="2400" height="1600" rx="800" ry="800" id="Zeo4tNDnqIp6uSjFvtcE_pad-21"/><circle cx="0" cy="0" r="1000" id="Zeo4tNDnqIp6uSjFvtcE_pad-22"/><circle cx="0" cy="0" r="800" id="Zeo4tNDnqIp6uSjFvtcE_pad-23"/><rect x="-800" y="-800" width="1600" height="1600" rx="800" ry="800" id="Zeo4tNDnqIp6uSjFvtcE_pad-24"/><rect x="-850" y="-850" width="1700" height="1700" id="Zeo4tNDnqIp6uSjFvtcE_pad-25"/><rect x="-850" y="-850" width="1700" height="1700" rx="850" ry="850" id="Zeo4tNDnqIp6uSjFvtcE_pad-26"/><mask id="Zeo4tNDnqIp6uSjFvtcE_clear-1" fill="#000" stroke="#000"><g><rect x="60332.021" y="-135309.669" width="54460.836" height="88942.289" fill="#fff"/><use xlink:href="#Zeo4tNDnqIp6uSjFvtcE_pad-14" x="65000" y="-51000"/><use xlink:href="#Zeo4tNDnqIp6uSjFvtcE_pad-15" x="100000" y="-123989.669"/><use xlink:href="#Zeo4tNDnqIp6uSjFvtcE_pad-15" x="75000" y="-123989.669"/><use xlink:href="#Zeo4tNDnqIp6uSjFvtcE_pad-16" x="81960" y="-122219.669"/><use xlink:href="#Zeo4tNDnqIp6uSjFvtcE_pad-17" x="84730" y="-122219.669"/><use xlink:href="#Zeo4tNDnqIp6uSjFvtcE_pad-17" x="87500" y="-122219.669"/><use xlink:href="#Zeo4tNDnqIp6uSjFvtcE_pad-17" x="90270" y="-122219.669"/><use xlink:href="#Zeo4tNDnqIp6uSjFvtcE_pad-17" x="93040" y="-122219.669"/><use xlink:href="#Zeo4tNDnqIp6uSjFvtcE_pad-17" x="83345" y="-125759.669"/><use xlink:href="#Zeo4tNDnqIp6uSjFvtcE_pad-17" x="86115" y="-125759.669"/><use xlink:href="#Zeo4tNDnqIp6uSjFvtcE_pad-17" x="88885" y="-125759.669"/><use xlink:href="#Zeo4tNDnqIp6uSjFvtcE_pad-17" x="91655" y="-125759.669"/><use xlink:href="#Zeo4tNDnqIp6uSjFvtcE_pad-18" x="67250" y="-82500"/><use xlink:href="#Zeo4tNDnqIp6uSjFvtcE_pad-19" x="70290" y="-82500"/><use xlink:href="#Zeo4tNDnqIp6uSjFvtcE_pad-20" x="79900" y="-47900"/><use xlink:href="#Zeo4tNDnqIp6uSjFvtcE_pad-21" x="79900" y="-50440"/><use xlink:href="#Zeo4tNDnqIp6uSjFvtcE_pad-21" x="79900" y="-52980"/><use xlink:href="#Zeo4tNDnqIp6uSjFvtcE_pad-21" x="79900" y="-55520"/><use xlink:href="#Zeo4tNDnqIp6uSjFvtcE_pad-21" x="79900" y="-58060"/><use xlink:href="#Zeo4tNDnqIp6uSjFvtcE_pad-21" x="79900" y="-60600"/><use xlink:href="#Zeo4tNDnqIp6uSjFvtcE_pad-21" x="79900" y="-63140"/><use xlink:href="#Zeo4tNDnqIp6uSjFvtcE_pad-21" x="79900" y="-65680"/><use xlink:href="#Zeo4tNDnqIp6uSjFvtcE_pad-21" x="79900" y="-68220"/><use xlink:href="#Zeo4tNDnqIp6uSjFvtcE_pad-21" x="79900" y="-70760"/><use xlink:href="#Zeo4tNDnqIp6uSjFvtcE_pad-21" x="79900" y="-73300"/><use xlink:href="#Zeo4tNDnqIp6uSjFvtcE_pad-21" x="79900" y="-75840"/><use xlink:href="#Zeo4tNDnqIp6uSjFvtcE_pad-21" x="95140" y="-75840"/><use xlink:href="#Zeo4tNDnqIp6uSjFvtcE_pad-21" x="95140" y="-73300"/><use xlink:href="#Zeo4tNDnqIp6uSjFvtcE_pad-21" x="95140" y="-70760"/><use xlink:href="#Zeo4tNDnqIp6uSjFvtcE_pad-21" x="95140" y="-68220"/><use xlink:href="#Zeo4tNDnqIp6uSjFvtcE_pad-21" x="95140" y="-65680"/><use xlink:href="#Zeo4tNDnqIp6uSjFvtcE_pad-21" x="95140" y="-63140"/><use xlink:href="#Zeo4tNDnqIp6uSjFvtcE_pad-21" x="95140" y="-60600"/><use xlink:href="#Zeo4tNDnqIp6uSjFvtcE_pad-21" x="95140" y="-58060"/><use xlink:href="#Zeo4tNDnqIp6uSjFvtcE_pad-21" x="95140" y="-55520"/><use xlink:href="#Zeo4tNDnqIp6uSjFvtcE_pad-21" x="95140" y="-52980"/><use xlink:href="#Zeo4tNDnqIp6uSjFvtcE_pad-21" x="95140" y="-50440"/><use xlink:href="#Zeo4tNDnqIp6uSjFvtcE_pad-21" x="95140" y="-47900"/><use xlink:href="#Zeo4tNDnqIp6uSjFvtcE_pad-22" x="106250" y="-60750"/><use xlink:href="#Zeo4tNDnqIp6uSjFvtcE_pad-22" x="106250" y="-67250"/><use xlink:href="#Zeo4tNDnqIp6uSjFvtcE_pad-22" x="110750" y="-67250"/><use xlink:href="#Zeo4tNDnqIp6uSjFvtcE_pad-22" x="110750" y="-60750"/><use xlink:href="#Zeo4tNDnqIp6uSjFvtcE_pad-18" x="67250" y="-109000"/><use xlink:href="#Zeo4tNDnqIp6uSjFvtcE_pad-19" x="70290" y="-109000"/><use xlink:href="#Zeo4tNDnqIp6uSjFvtcE_pad-23" x="69750" y="-62920"/><use xlink:href="#Zeo4tNDnqIp6uSjFvtcE_pad-24" x="69750" y="-73080"/><use xlink:href="#Zeo4tNDnqIp6uSjFvtcE_pad-14" x="110000" y="-51000"/><use xlink:href="#Zeo4tNDnqIp6uSjFvtcE_pad-23" x="66750" y="-62920"/><use xlink:href="#Zeo4tNDnqIp6uSjFvtcE_pad-24" x="66750" y="-73080"/><use xlink:href="#Zeo4tNDnqIp6uSjFvtcE_pad-14" x="65000" y="-131000"/><use xlink:href="#Zeo4tNDnqIp6uSjFvtcE_pad-25" x="103500" y="-74500"/><use xlink:href="#Zeo4tNDnqIp6uSjFvtcE_pad-26" x="106040" y="-74500"/><use xlink:href="#Zeo4tNDnqIp6uSjFvtcE_pad-26" x="103500" y="-77040"/><use xlink:href="#Zeo4tNDnqIp6uSjFvtcE_pad-26" x="106040" y="-77040"/><use xlink:href="#Zeo4tNDnqIp6uSjFvtcE_pad-26" x="103500" y="-79580"/><use xlink:href="#Zeo4tNDnqIp6uSjFvtcE_pad-26" x="106040" y="-79580"/><use xlink:href="#Zeo4tNDnqIp6uSjFvtcE_pad-26" x="103500" y="-82120"/><use xlink:href="#Zeo4tNDnqIp6uSjFvtcE_pad-26" x="106040" y="-82120"/><use xlink:href="#Zeo4tNDnqIp6uSjFvtcE_pad-14" x="110000" y="-131000"/></g></mask><circle cx="0" cy="0" r="68.9" id="pYfbZbx9w-wLkoA2Thdt_pad-1"/><circle cx="0" cy="0" r="7.85" id="vOHD5NeBREhb_SnDbM-A_pad-1"/><circle cx="0" cy="0" r="15.75" id="vOHD5NeBREhb_SnDbM-A_pad-2"/><circle cx="0" cy="0" r="17.7" id="vOHD5NeBREhb_SnDbM-A_pad-3"/><circle cx="0" cy="0" r="19.7" id="vOHD5NeBREhb_SnDbM-A_pad-4"/><circle cx="0" cy="0" r="21.65" id="vOHD5NeBREhb_SnDbM-A_pad-5"/><circle cx="0" cy="0" r="63" id="vOHD5NeBREhb_SnDbM-A_pad-6"/><g id="P55AUkp-Wqv-3mLsmqFH_top_soldermask"><use xlink:href="#MdRQUhY9DVKVpilSfR58_pad-10" x="65000" y="-51000"/><use xlink:href="#MdRQUhY9DVKVpilSfR58_pad-11" x="100000" y="-123989.669"/><use xlink:href="#MdRQUhY9DVKVpilSfR58_pad-11" x="75000" y="-123989.669"/><use xlink:href="#MdRQUhY9DVKVpilSfR58_pad-12" x="81960" y="-122219.669"/><use xlink:href="#MdRQUhY9DVKVpilSfR58_pad-13" x="84730" y="-122219.669"/><use xlink:href="#MdRQUhY9DVKVpilSfR58_pad-13" x="87500" y="-122219.669"/><use xlink:href="#MdRQUhY9DVKVpilSfR58_pad-13" x="90270" y="-122219.669"/><use xlink:href="#MdRQUhY9DVKVpilSfR58_pad-13" x="93040" y="-122219.669"/><use xlink:href="#MdRQUhY9DVKVpilSfR58_pad-13" x="83345" y="-125759.669"/><use xlink:href="#MdRQUhY9DVKVpilSfR58_pad-13" x="86115" y="-125759.669"/><use xlink:href="#MdRQUhY9DVKVpilSfR58_pad-13" x="88885" y="-125759.669"/><use xlink:href="#MdRQUhY9DVKVpilSfR58_pad-13" x="91655" y="-125759.669"/><use xlink:href="#MdRQUhY9DVKVpilSfR58_pad-14" x="67250" y="-82500"/><use xlink:href="#MdRQUhY9DVKVpilSfR58_pad-15" x="70290" y="-82500"/><use xlink:href="#MdRQUhY9DVKVpilSfR58_pad-16" x="79900" y="-47900"/><use xlink:href="#MdRQUhY9DVKVpilSfR58_pad-17" x="79900" y="-50440"/><use xlink:href="#MdRQUhY9DVKVpilSfR58_pad-17" x="79900" y="-52980"/><use xlink:href="#MdRQUhY9DVKVpilSfR58_pad-17" x="79900" y="-55520"/><use xlink:href="#MdRQUhY9DVKVpilSfR58_pad-17" x="79900" y="-58060"/><use xlink:href="#MdRQUhY9DVKVpilSfR58_pad-17" x="79900" y="-60600"/><use xlink:href="#MdRQUhY9DVKVpilSfR58_pad-17" x="79900" y="-63140"/><use xlink:href="#MdRQUhY9DVKVpilSfR58_pad-17" x="79900" y="-65680"/><use xlink:href="#MdRQUhY9DVKVpilSfR58_pad-17" x="79900" y="-68220"/><use xlink:href="#MdRQUhY9DVKVpilSfR58_pad-17" x="79900" y="-70760"/><use xlink:href="#MdRQUhY9DVKVpilSfR58_pad-17" x="79900" y="-73300"/><use xlink:href="#MdRQUhY9DVKVpilSfR58_pad-17" x="79900" y="-75840"/><use xlink:href="#MdRQUhY9DVKVpilSfR58_pad-17" x="95140" y="-75840"/><use xlink:href="#MdRQUhY9DVKVpilSfR58_pad-17" x="95140" y="-73300"/><use xlink:href="#MdRQUhY9DVKVpilSfR58_pad-17" x="95140" y="-70760"/><use xlink:href="#MdRQUhY9DVKVpilSfR58_pad-17" x="95140" y="-68220"/><use xlink:href="#MdRQUhY9DVKVpilSfR58_pad-17" x="95140" y="-65680"/><use xlink:href="#MdRQUhY9DVKVpilSfR58_pad-17" x="95140" y="-63140"/><use xlink:href="#MdRQUhY9DVKVpilSfR58_pad-17" x="95140" y="-60600"/><use xlink:href="#MdRQUhY9DVKVpilSfR58_pad-17" x="95140" y="-58060"/><use xlink:href="#MdRQUhY9DVKVpilSfR58_pad-17" x="95140" y="-55520"/><use xlink:href="#MdRQUhY9DVKVpilSfR58_pad-17" x="95140" y="-52980"/><use xlink:href="#MdRQUhY9DVKVpilSfR58_pad-17" x="95140" y="-50440"/><use xlink:href="#MdRQUhY9DVKVpilSfR58_pad-17" x="95140" y="-47900"/><use xlink:href="#MdRQUhY9DVKVpilSfR58_pad-18" x="106250" y="-60750"/><use xlink:href="#MdRQUhY9DVKVpilSfR58_pad-18" x="106250" y="-67250"/><use xlink:href="#MdRQUhY9DVKVpilSfR58_pad-18" x="110750" y="-67250"/><use xlink:href="#MdRQUhY9DVKVpilSfR58_pad-18" x="110750" y="-60750"/><use xlink:href="#MdRQUhY9DVKVpilSfR58_pad-14" x="67250" y="-109000"/><use xlink:href="#MdRQUhY9DVKVpilSfR58_pad-15" x="70290" y="-109000"/><use xlink:href="#MdRQUhY9DVKVpilSfR58_pad-19" x="69750" y="-62920"/><use xlink:href="#MdRQUhY9DVKVpilSfR58_pad-20" x="69750" y="-73080"/><use xlink:href="#MdRQUhY9DVKVpilSfR58_pad-10" x="110000" y="-51000"/><use xlink:href="#MdRQUhY9DVKVpilSfR58_pad-19" x="66750" y="-62920"/><use xlink:href="#MdRQUhY9DVKVpilSfR58_pad-20" x="66750" y="-73080"/><use xlink:href="#MdRQUhY9DVKVpilSfR58_pad-10" x="65000" y="-131000"/><use xlink:href="#MdRQUhY9DVKVpilSfR58_pad-21" x="103500" y="-74500"/><use xlink:href="#MdRQUhY9DVKVpilSfR58_pad-22" x="106040" y="-74500"/><use xlink:href="#MdRQUhY9DVKVpilSfR58_pad-22" x="103500" y="-77040"/><use xlink:href="#MdRQUhY9DVKVpilSfR58_pad-22" x="106040" y="-77040"/><use xlink:href="#MdRQUhY9DVKVpilSfR58_pad-22" x="103500" y="-79580"/><use xlink:href="#MdRQUhY9DVKVpilSfR58_pad-22" x="106040" y="-79580"/><use xlink:href="#MdRQUhY9DVKVpilSfR58_pad-22" x="103500" y="-82120"/><use xlink:href="#MdRQUhY9DVKVpilSfR58_pad-22" x="106040" y="-82120"/><use xlink:href="#MdRQUhY9DVKVpilSfR58_pad-10" x="110000" y="-131000"/></g><g id="P55AUkp-Wqv-3mLsmqFH_top_copper"><use xlink:href="#WhLy99nrf3de8Hk_r1JS_pad-10" x="100000" y="-123989.669"/><use xlink:href="#WhLy99nrf3de8Hk_r1JS_pad-10" x="75000" y="-123989.669"/><use xlink:href="#WhLy99nrf3de8Hk_r1JS_pad-11" x="81960" y="-122219.669"/><use xlink:href="#WhLy99nrf3de8Hk_r1JS_pad-12" x="84730" y="-122219.669"/><use xlink:href="#WhLy99nrf3de8Hk_r1JS_pad-12" x="87500" y="-122219.669"/><use xlink:href="#WhLy99nrf3de8Hk_r1JS_pad-12" x="90270" y="-122219.669"/><use xlink:href="#WhLy99nrf3de8Hk_r1JS_pad-12" x="93040" y="-122219.669"/><use xlink:href="#WhLy99nrf3de8Hk_r1JS_pad-12" x="83345" y="-125759.669"/><use xlink:href="#WhLy99nrf3de8Hk_r1JS_pad-12" x="86115" y="-125759.669"/><use xlink:href="#WhLy99nrf3de8Hk_r1JS_pad-12" x="88885" y="-125759.669"/><use xlink:href="#WhLy99nrf3de8Hk_r1JS_pad-12" x="91655" y="-125759.669"/><use xlink:href="#WhLy99nrf3de8Hk_r1JS_pad-13" x="67250" y="-82500"/><use xlink:href="#WhLy99nrf3de8Hk_r1JS_pad-14" x="70290" y="-82500"/><use xlink:href="#WhLy99nrf3de8Hk_r1JS_pad-15" x="79900" y="-47900"/><use xlink:href="#WhLy99nrf3de8Hk_r1JS_pad-16" x="79900" y="-50440"/><use xlink:href="#WhLy99nrf3de8Hk_r1JS_pad-16" x="79900" y="-52980"/><use xlink:href="#WhLy99nrf3de8Hk_r1JS_pad-16" x="79900" y="-55520"/><use xlink:href="#WhLy99nrf3de8Hk_r1JS_pad-16" x="79900" y="-58060"/><use xlink:href="#WhLy99nrf3de8Hk_r1JS_pad-16" x="79900" y="-60600"/><use xlink:href="#WhLy99nrf3de8Hk_r1JS_pad-16" x="79900" y="-63140"/><use xlink:href="#WhLy99nrf3de8Hk_r1JS_pad-16" x="79900" y="-65680"/><use xlink:href="#WhLy99nrf3de8Hk_r1JS_pad-16" x="79900" y="-68220"/><use xlink:href="#WhLy99nrf3de8Hk_r1JS_pad-16" x="79900" y="-70760"/><use xlink:href="#WhLy99nrf3de8Hk_r1JS_pad-16" x="79900" y="-73300"/><use xlink:href="#WhLy99nrf3de8Hk_r1JS_pad-16" x="79900" y="-75840"/><use xlink:href="#WhLy99nrf3de8Hk_r1JS_pad-16" x="95140" y="-75840"/><use xlink:href="#WhLy99nrf3de8Hk_r1JS_pad-16" x="95140" y="-73300"/><use xlink:href="#WhLy99nrf3de8Hk_r1JS_pad-16" x="95140" y="-70760"/><use xlink:href="#WhLy99nrf3de8Hk_r1JS_pad-16" x="95140" y="-68220"/><use xlink:href="#WhLy99nrf3de8Hk_r1JS_pad-16" x="95140" y="-65680"/><use xlink:href="#WhLy99nrf3de8Hk_r1JS_pad-16" x="95140" y="-63140"/><use xlink:href="#WhLy99nrf3de8Hk_r1JS_pad-16" x="95140" y="-60600"/><use xlink:href="#WhLy99nrf3de8Hk_r1JS_pad-16" x="95140" y="-58060"/><use xlink:href="#WhLy99nrf3de8Hk_r1JS_pad-16" x="95140" y="-55520"/><use xlink:href="#WhLy99nrf3de8Hk_r1JS_pad-16" x="95140" y="-52980"/><use xlink:href="#WhLy99nrf3de8Hk_r1JS_pad-16" x="95140" y="-50440"/><use xlink:href="#WhLy99nrf3de8Hk_r1JS_pad-16" x="95140" y="-47900"/><use xlink:href="#WhLy99nrf3de8Hk_r1JS_pad-17" x="106250" y="-60750"/><use xlink:href="#WhLy99nrf3de8Hk_r1JS_pad-17" x="106250" y="-67250"/><use xlink:href="#WhLy99nrf3de8Hk_r1JS_pad-17" x="110750" y="-67250"/><use xlink:href="#WhLy99nrf3de8Hk_r1JS_pad-17" x="110750" y="-60750"/><use xlink:href="#WhLy99nrf3de8Hk_r1JS_pad-13" x="67250" y="-109000"/><use xlink:href="#WhLy99nrf3de8Hk_r1JS_pad-14" x="70290" y="-109000"/><use xlink:href="#WhLy99nrf3de8Hk_r1JS_pad-18" x="69750" y="-62920"/><use xlink:href="#WhLy99nrf3de8Hk_r1JS_pad-19" x="69750" y="-73080"/><use xlink:href="#WhLy99nrf3de8Hk_r1JS_pad-18" x="66750" y="-62920"/><use xlink:href="#WhLy99nrf3de8Hk_r1JS_pad-19" x="66750" y="-73080"/><use xlink:href="#WhLy99nrf3de8Hk_r1JS_pad-20" x="103500" y="-74500"/><use xlink:href="#WhLy99nrf3de8Hk_r1JS_pad-21" x="106040" y="-74500"/><use xlink:href="#WhLy99nrf3de8Hk_r1JS_pad-21" x="103500" y="-77040"/><use xlink:href="#WhLy99nrf3de8Hk_r1JS_pad-21" x="106040" y="-77040"/><use xlink:href="#WhLy99nrf3de8Hk_r1JS_pad-21" x="103500" y="-79580"/><use xlink:href="#WhLy99nrf3de8Hk_r1JS_pad-21" x="106040" y="-79580"/><use xlink:href="#WhLy99nrf3de8Hk_r1JS_pad-21" x="103500" y="-82120"/><use xlink:href="#WhLy99nrf3de8Hk_r1JS_pad-21" x="106040" y="-82120"/><use xlink:href="#WhLy99nrf3de8Hk_r1JS_pad-22" x="78400" y="-119000"/><use xlink:href="#WhLy99nrf3de8Hk_r1JS_pad-22" x="92456" y="-117602"/><path d="M 100000 -115609.669 100000 -58000 M 97520 -55520 95140 -55520 M 100000 -58000 97520 -55520 M 93040 -122569.669 100000 -115609.669" fill="none" stroke-width="800"/><path d="M 73500 -105540 73500 -76830 69750 -73080 M 70040 -109000 73500 -105540 M 70040 -79040 66750 -75750 66750 -73080 M 70040 -82500 70040 -79040" fill="none" stroke-width="350"/><path d="M 98480 -52980 106250 -60750 M 95140 -52980 98480 -52980 M 106250 -60750 106250 -66750 105750 -67250" fill="none" stroke-width="300"/><path d="M 81960 -122569.669 81960 -78822 M 92562 -68220 95140 -68220 M 81960 -78822 92562 -68220 M 84730 -81259 84730 -122569.669 M 92689 -73300 84730 -81259 M 95140 -73300 92689 -73300 M 88264 -119000 93852 -119000 M 98298 -78740 98298 -71501 M 87500 -119764 88264 -119000 M 95504 -117348 95504 -81534 M 87500 -122569.669 87500 -119764 M 97557 -70760 95140 -70760 M 93852 -119000 95504 -117348 M 98298 -71501 97557 -70760 M 95504 -81534 98298 -78740 M 76250.8 -116850.8 76250.8 -74249.2 M 78400 -119000 76250.8 -116850.8 M 77200 -73300 79900 -73300 M 76250.8 -74249.2 77200 -73300 M 83345 -125409.669 80409.669 -125409.669 79750 -124750 79750 -75990 79900 -75840 M 81256 -128500 79100 -126344 M 75600.8 -118780.8 75600.8 -70399.2 M 79100 -122280 75600.8 -118780.8 M 85500 -128500 81256 -128500 M 75600.8 -70399.2 77780 -68220 M 86115 -125409.669 86115 -127885 M 79100 -126344 79100 -122280 M 77780 -68220 79900 -68220 M 86115 -127885 85500 -128500 M 92456 -117602 92456 -78524 95140 -75840 M 69440 -58060 79900 -58060 M 66750 -60750 69440 -58060 M 66750 -62920 66750 -60750 M 69750 -62920 72070 -60600 79900 -60600" fill="none" stroke-width="350"/></g><g id="P55AUkp-Wqv-3mLsmqFH_top_silkscreen"><g mask="url(#Zeo4tNDnqIp6uSjFvtcE_clear-1)"><path d="M 113071.428 -70642.857 114571.428 -70642.857 M 113071.428 -71285.714 113857.142 -71285.714 114000 -71214.285 114071.428 -71071.428 114071.428 -70857.142 114000 -70714.285 113928.571 -70642.857 M 114071.428 -71785.714 114071.428 -72357.142 M 114571.428 -72000 113285.714 -72000 113142.857 -72071.428 113071.428 -72214.285 113071.428 -72357.142 M 114071.428 -72642.857 114071.428 -73214.285 M 114571.428 -72857.142 113285.714 -72857.142 113142.857 -72928.571 113071.428 -73071.428 113071.428 -73214.285 M 114071.428 -73714.285 112571.428 -73714.285 M 114000 -73714.285 114071.428 -73857.142 114071.428 -74142.857 114000 -74285.714 113928.571 -74357.142 113785.714 -74428.571 113357.142 -74428.571 113214.285 -74357.142 113142.857 -74285.714 113071.428 -74142.857 113071.428 -73857.142 113142.857 -73714.285 M 113142.857 -75000 113071.428 -75142.857 113071.428 -75428.571 113142.857 -75571.428 113285.714 -75642.857 113357.142 -75642.857 113500 -75571.428 113571.428 -75428.571 113571.428 -75214.285 113642.857 -75071.428 113785.714 -75000 113857.142 -75000 114000 -75071.428 114071.428 -75214.285 114071.428 -75428.571 114000 -75571.428 M 113214.285 -76285.714 113142.857 -76357.142 113071.428 -76285.714 113142.857 -76214.285 113214.285 -76285.714 113071.428 -76285.714 M 114000 -76285.714 113928.571 -76357.142 113857.142 -76285.714 113928.571 -76214.285 114000 -76285.714 113857.142 -76285.714 M 114642.857 -78071.428 112714.285 -76785.714 M 114642.857 -79642.857 112714.285 -78357.142 M 114071.428 -80785.714 112857.142 -80785.714 112714.285 -80714.285 112642.857 -80642.857 112571.428 -80500 112571.428 -80285.714 112642.857 -80142.857 M 113142.857 -80785.714 113071.428 -80642.857 113071.428 -80357.142 113142.857 -80214.285 113214.285 -80142.857 113357.142 -80071.428 113785.714 -80071.428 113928.571 -80142.857 114000 -80214.285 114071.428 -80357.142 114071.428 -80642.857 114000 -80785.714 M 113071.428 -81500 114071.428 -81500 M 114571.428 -81500 114500 -81428.571 114428.571 -81500 114500 -81571.428 114571.428 -81500 114428.571 -81500 M 114071.428 -82000 114071.428 -82571.428 M 114571.428 -82214.285 113285.714 -82214.285 113142.857 -82285.714 113071.428 -82428.571 113071.428 -82571.428 M 113071.428 -83071.428 114571.428 -83071.428 M 113071.428 -83714.285 113857.142 -83714.285 114000 -83642.857 114071.428 -83500 114071.428 -83285.714 114000 -83142.857 113928.571 -83071.428 M 114071.428 -85071.428 113071.428 -85071.428 M 114071.428 -84428.571 113285.714 -84428.571 113142.857 -84500 113071.428 -84642.857 113071.428 -84857.142 113142.857 -85000 113214.285 -85071.428 M 113071.428 -85785.714 114571.428 -85785.714 M 114000 -85785.714 114071.428 -85928.571 114071.428 -86214.285 114000 -86357.142 113928.571 -86428.571 113785.714 -86500 113357.142 -86500 113214.285 -86428.571 113142.857 -86357.142 113071.428 -86214.285 113071.428 -85928.571 113142.857 -85785.714 M 113214.285 -87142.857 113142.857 -87214.285 113071.428 -87142.857 113142.857 -87071.428 113214.285 -87142.857 113071.428 -87142.857 M 113142.857 -88500 113071.428 -88357.142 113071.428 -88071.428 113142.857 -87928.571 113214.285 -87857.142 113357.142 -87785.714 113785.714 -87785.714 113928.571 -87857.142 114000 -87928.571 114071.428 -88071.428 114071.428 -88357.142 114000 -88500 M 113071.428 -89357.142 113142.857 -89214.285 113214.285 -89142.857 113357.142 -89071.428 113785.714 -89071.428 113928.571 -89142.857 114000 -89214.285 114071.428 -89357.142 114071.428 -89571.428 114000 -89714.285 113928.571 -89785.714 113785.714 -89857.142 113357.142 -89857.142 113214.285 -89785.714 113142.857 -89714.285 113071.428 -89571.428 113071.428 -89357.142 M 113071.428 -90500 114071.428 -90500 M 113928.571 -90500 114000 -90571.428 114071.428 -90714.285 114071.428 -90928.571 114000 -91071.428 113857.142 -91142.857 113071.428 -91142.857 M 113857.142 -91142.857 114000 -91214.285 114071.428 -91357.142 114071.428 -91571.428 114000 -91714.285 113857.142 -91785.714 113071.428 -91785.714 M 114642.857 -93571.428 112714.285 -92285.714 M 113071.428 -94071.428 114071.428 -94071.428 M 113928.571 -94071.428 114000 -94142.857 114071.428 -94285.714 114071.428 -94500 114000 -94642.857 113857.142 -94714.285 113071.428 -94714.285 M 113857.142 -94714.285 114000 -94785.714 114071.428 -94928.571 114071.428 -95142.857 114000 -95285.714 113857.142 -95357.142 113071.428 -95357.142 M 113071.428 -96071.428 114071.428 -96071.428 M 114571.428 -96071.428 114500 -96000 114428.571 -96071.428 114500 -96142.857 114571.428 -96071.428 114428.571 -96071.428 M 113142.857 -96714.285 113071.428 -96857.142 113071.428 -97142.857 113142.857 -97285.714 113285.714 -97357.142 113357.142 -97357.142 113500 -97285.714 113571.428 -97142.857 113571.428 -96928.571 113642.857 -96785.714 113785.714 -96714.285 113857.142 -96714.285 114000 -96785.714 114071.428 -96928.571 114071.428 -97142.857 114000 -97285.714 M 114071.428 -97785.714 114071.428 -98357.142 M 114571.428 -98000 113285.714 -98000 113142.857 -98071.428 113071.428 -98214.285 113071.428 -98357.142 M 113142.857 -99428.571 113071.428 -99285.714 113071.428 -99000 113142.857 -98857.142 113285.714 -98785.714 113857.142 -98785.714 114000 -98857.142 114071.428 -99000 114071.428 -99285.714 114000 -99428.571 113857.142 -99500 113714.285 -99500 113571.428 -98785.714 M 114071.428 -100142.857 112571.428 -100142.857 M 114000 -100142.857 114071.428 -100285.714 114071.428 -100571.428 114000 -100714.285 113928.571 -100785.714 113785.714 -100857.142 113357.142 -100857.142 113214.285 -100785.714 113142.857 -100714.285 113071.428 -100571.428 113071.428 -100285.714 113142.857 -100142.857 M 113071.428 -101500 114071.428 -101500 M 114571.428 -101500 114500 -101428.571 114428.571 -101500 114500 -101571.428 114571.428 -101500 114428.571 -101500 M 113142.857 -102785.714 113071.428 -102642.857 113071.428 -102357.142 113142.857 -102214.285 113285.714 -102142.857 113857.142 -102142.857 114000 -102214.285 114071.428 -102357.142 114071.428 -102642.857 114000 -102785.714 113857.142 -102857.142 113714.285 -102857.142 113571.428 -102142.857 M 114071.428 -103500 113071.428 -103500 M 113928.571 -103500 114000 -103571.428 114071.428 -103714.285 114071.428 -103928.571 114000 -104071.428 113857.142 -104142.857 113071.428 -104142.857 M 114642.857 -105928.571 112714.285 -104642.857 M 113142.857 -106357.142 113071.428 -106500 113071.428 -106785.714 113142.857 -106928.571 113285.714 -107000 113357.142 -107000 113500 -106928.571 113571.428 -106785.714 113571.428 -106571.428 113642.857 -106428.571 113785.714 -106357.142 113857.142 -106357.142 114000 -106428.571 114071.428 -106571.428 114071.428 -106785.714 114000 -106928.571 M 113142.857 -108214.285 113071.428 -108071.428 113071.428 -107785.714 113142.857 -107642.857 113285.714 -107571.428 113857.142 -107571.428 114000 -107642.857 114071.428 -107785.714 114071.428 -108071.428 114000 -108214.285 113857.142 -108285.714 113714.285 -108285.714 113571.428 -107571.428 M 114071.428 -109571.428 112857.142 -109571.428 112714.285 -109500 112642.857 -109428.571 112571.428 -109285.714 112571.428 -109071.428 112642.857 -108928.571 M 113142.857 -109571.428 113071.428 -109428.571 113071.428 -109142.857 113142.857 -109000 113214.285 -108928.571 113357.142 -108857.142 113785.714 -108857.142 113928.571 -108928.571 114000 -109000 114071.428 -109142.857 114071.428 -109428.571 114000 -109571.428 M 113071.428 -110928.571 113857.142 -110928.571 114000 -110857.142 114071.428 -110714.285 114071.428 -110428.571 114000 -110285.714 M 113142.857 -110928.571 113071.428 -110785.714 113071.428 -110428.571 113142.857 -110285.714 113285.714 -110214.285 113428.571 -110214.285 113571.428 -110285.714 113642.857 -110428.571 113642.857 -110785.714 113714.285 -110928.571 M 114071.428 -111642.857 112571.428 -111642.857 M 114000 -111642.857 114071.428 -111785.714 114071.428 -112071.428 114000 -112214.285 113928.571 -112285.714 113785.714 -112357.142 113357.142 -112357.142 113214.285 -112285.714 113142.857 -112214.285 113071.428 -112071.428 113071.428 -111785.714 113142.857 -111642.857 M 113071.428 -113642.857 113857.142 -113642.857 114000 -113571.428 114071.428 -113428.571 114071.428 -113142.857 114000 -113000 M 113142.857 -113642.857 113071.428 -113500 113071.428 -113142.857 113142.857 -113000 113285.714 -112928.571 113428.571 -112928.571 113571.428 -113000 113642.857 -113142.857 113642.857 -113500 113714.285 -113642.857 M 113071.428 -115000 114571.428 -115000 M 113142.857 -115000 113071.428 -114857.142 113071.428 -114571.428 113142.857 -114428.571 113214.285 -114357.142 113357.142 -114285.714 113785.714 -114285.714 113928.571 -114357.142 114000 -114428.571 114071.428 -114571.428 114071.428 -114857.142 114000 -115000 M 114428.571 -115642.857 114500 -115714.285 114571.428 -115857.142 114571.428 -116214.285 114500 -116357.142 114428.571 -116428.571 114285.714 -116500 114142.857 -116500 113928.571 -116428.571 113071.428 -115571.428 113071.428 -116500 M 114071.428 -117785.714 113071.428 -117785.714 M 114071.428 -117142.857 113285.714 -117142.857 113142.857 -117214.285 113071.428 -117357.142 113071.428 -117571.428 113142.857 -117714.285 113214.285 -117785.714 M 113142.857 -118428.571 113071.428 -118571.428 113071.428 -118857.142 113142.857 -119000 113285.714 -119071.428 113357.142 -119071.428 113500 -119000 113571.428 -118857.142 113571.428 -118642.857 113642.857 -118500 113785.714 -118428.571 113857.142 -118428.571 114000 -118500 114071.428 -118642.857 114071.428 -118857.142 114000 -119000 M 113071.428 -119714.285 114571.428 -119714.285 M 114000 -119714.285 114071.428 -119857.142 114071.428 -120142.857 114000 -120285.714 113928.571 -120357.142 113785.714 -120428.571 113357.142 -120428.571 113214.285 -120357.142 113142.857 -120285.714 113071.428 -120142.857 113071.428 -119857.142 113142.857 -119714.285" fill="none" stroke-width="300"/><path d="M 97893.523 -47442.38 97893.523 -46775.714 M 97893.523 -46966.19 97941.142 -46870.952 97988.761 -46823.333 98084 -46775.714 98179.238 -46775.714 M 98893.523 -47394.761 98798.285 -47442.38 98607.809 -47442.38 98512.571 -47394.761 98464.952 -47299.523 98464.952 -46918.571 98512.571 -46823.333 98607.809 -46775.714 98798.285 -46775.714 98893.523 -46823.333 98941.142 -46918.571 98941.142 -47013.809 98464.952 -47109.047 M 99274.476 -46775.714 99512.571 -47442.38 99750.666 -46775.714 M 100131.619 -47347.142 100179.238 -47394.761 100131.619 -47442.38 100084 -47394.761 100131.619 -47347.142 100131.619 -47442.38 M 101560.19 -46442.38 101655.428 -46442.38 101750.666 -46490 101798.285 -46537.619 101845.904 -46632.857 101893.523 -46823.333 101893.523 -47061.428 101845.904 -47251.904 101798.285 -47347.142 101750.666 -47394.761 101655.428 -47442.38 101560.19 -47442.38 101464.952 -47394.761 101417.333 -47347.142 101369.714 -47251.904 101322.095 -47061.428 101322.095 -46823.333 101369.714 -46632.857 101417.333 -46537.619 101464.952 -46490 101560.19 -46442.38 M 102322.095 -47347.142 102369.714 -47394.761 102322.095 -47442.38 102274.476 -47394.761 102322.095 -47347.142 102322.095 -47442.38 M 102750.666 -46537.619 102798.285 -46490 102893.523 -46442.38 103131.619 -46442.38 103226.857 -46490 103274.476 -46537.619 103322.095 -46632.857 103322.095 -46728.095 103274.476 -46870.952 102703.047 -47442.38 103322.095 -47442.38 M 87166.666 -119222.049 87166.666 -119936.335 87119.047 -120079.192 87023.809 -120174.43 86880.952 -120222.049 86785.714 -120222.049 M 88166.666 -120222.049 87595.238 -120222.049 M 87880.952 -120222.049 87880.952 -119222.049 87785.714 -119364.907 87690.476 -119460.145 87595.238 -119507.764 M 68031.904 -79992.38 68031.904 -78992.38 68270 -78992.38 68412.857 -79040 68508.095 -79135.238 68555.714 -79230.476 68603.333 -79420.952 68603.333 -79563.809 68555.714 -79754.285 68508.095 -79849.523 68412.857 -79944.761 68270 -79992.38 68031.904 -79992.38 M 68984.285 -79087.619 69031.904 -79040 69127.142 -78992.38 69365.238 -78992.38 69460.476 -79040 69508.095 -79087.619 69555.714 -79182.857 69555.714 -79278.095 69508.095 -79420.952 68936.666 -79992.38 69555.714 -79992.38" fill="none" stroke-width="150"/><path d="M 61484.402 -85404.761 61103.45 -85404.761 60912.974 -85500 60817.736 -85595.238 60627.259 -85880.952 60532.021 -86261.904 60532.021 -87023.809 60627.259 -87214.285 60722.497 -87309.523 60912.974 -87404.761 61293.926 -87404.761 61484.402 -87309.523 61579.64 -87214.285 61674.878 -87023.809 61674.878 -86547.619 61579.64 -86357.142 61484.402 -86261.904 61293.926 -86166.666 60912.974 -86166.666 60722.497 -86261.904 60627.259 -86357.142 60532.021 -86547.619 M 63198.688 -86357.142 63484.402 -86452.38 63579.64 -86547.619 63674.878 -86738.095 63674.878 -87023.809 63579.64 -87214.285 63484.402 -87309.523 63293.926 -87404.761 62532.021 -87404.761 62532.021 -85404.761 63198.688 -85404.761 63389.164 -85500 63484.402 -85595.238 63579.64 -85785.714 63579.64 -85976.19 63484.402 -86166.666 63389.164 -86261.904 63198.688 -86357.142 62532.021 -86357.142 M 64246.307 -85404.761 65389.164 -85404.761 M 64817.736 -87404.761 64817.736 -85404.761 M 66055.831 -87404.761 66055.831 -85404.761 67198.688 -87404.761 67198.688 -85404.761 M 69674.878 -87404.761 69674.878 -85404.761 70341.545 -86833.333 71008.212 -85404.761 71008.212 -87404.761 M 72341.545 -85404.761 72722.497 -85404.761 72912.974 -85500 73103.45 -85690.476 73198.688 -86071.428 73198.688 -86738.095 73103.45 -87119.047 72912.974 -87309.523 72722.497 -87404.761 72341.545 -87404.761 72151.069 -87309.523 71960.593 -87119.047 71865.355 -86738.095 71865.355 -86071.428 71960.593 -85690.476 72151.069 -85500 72341.545 -85404.761 M 74055.831 -87404.761 74055.831 -85404.761 74532.021 -85404.761 74817.736 -85500 75008.212 -85690.476 75103.45 -85880.952 75198.688 -86261.904 75198.688 -86547.619 75103.45 -86928.571 75008.212 -87119.047 74817.736 -87309.523 74532.021 -87404.761 74055.831 -87404.761 M 76055.831 -86357.142 76722.497 -86357.142 M 77008.212 -87404.761 76055.831 -87404.761 76055.831 -85404.761 77008.212 -85404.761" fill="none" stroke-width="400"/><path d="M 86758.095 -47952.38 86758.095 -48761.904 86805.714 -48857.142 86853.333 -48904.761 86948.571 -48952.38 87139.047 -48952.38 87234.285 -48904.761 87281.904 -48857.142 87329.523 -48761.904 87329.523 -47952.38 M 88329.523 -48952.38 87758.095 -48952.38 M 88043.809 -48952.38 88043.809 -47952.38 87948.571 -48095.238 87853.333 -48190.476 87758.095 -48238.095 M 108904.761 -65333.333 108952.38 -65190.476 108952.38 -64952.38 108904.761 -64857.142 108857.142 -64809.523 108761.904 -64761.904 108666.666 -64761.904 108571.428 -64809.523 108523.809 -64857.142 108476.19 -64952.38 108428.571 -65142.857 108380.952 -65238.095 108333.333 -65285.714 108238.095 -65333.333 108142.857 -65333.333 108047.619 -65285.714 108000 -65238.095 107952.38 -65142.857 107952.38 -64904.761 108000 -64761.904 M 107952.38 -64428.571 108952.38 -64190.476 108238.095 -64000 108952.38 -63809.523 107952.38 -63571.428 M 108952.38 -62666.666 108952.38 -63238.095 M 108952.38 -62952.38 107952.38 -62952.38 108095.238 -63047.619 108190.476 -63142.857 108238.095 -63238.095 M 113728.38 -64547.619 113252.19 -64880.952 M 113728.38 -65119.047 112728.38 -65119.047 112728.38 -64738.095 112776 -64642.857 112823.619 -64595.238 112918.857 -64547.619 113061.714 -64547.619 113156.952 -64595.238 113204.571 -64642.857 113252.19 -64738.095 113252.19 -65119.047 M 113680.761 -64166.666 113728.38 -64023.809 113728.38 -63785.714 113680.761 -63690.476 113633.142 -63642.857 113537.904 -63595.238 113442.666 -63595.238 113347.428 -63642.857 113299.809 -63690.476 113252.19 -63785.714 113204.571 -63976.19 113156.952 -64071.428 113109.333 -64119.047 113014.095 -64166.666 112918.857 -64166.666 112823.619 -64119.047 112776 -64071.428 112728.38 -63976.19 112728.38 -63738.095 112776 -63595.238 M 112728.38 -63309.523 112728.38 -62738.095 M 113728.38 -63023.809 112728.38 -63023.809 M 68031.904 -106492.38 68031.904 -105492.38 68270 -105492.38 68412.857 -105540 68508.095 -105635.238 68555.714 -105730.476 68603.333 -105920.952 68603.333 -106063.809 68555.714 -106254.285 68508.095 -106349.523 68412.857 -106444.761 68270 -106492.38 68031.904 -106492.38 M 69555.714 -106492.38 68984.285 -106492.38 M 69270 -106492.38 69270 -105492.38 69174.761 -105635.238 69079.523 -105730.476 68984.285 -105778.095" fill="none" stroke-width="150"/><path d="M 64484.402 -114214.285 64389.164 -114309.523 64103.45 -114404.761 63912.974 -114404.761 63627.259 -114309.523 63436.783 -114119.047 63341.545 -113928.571 63246.307 -113547.619 63246.307 -113261.904 63341.545 -112880.952 63436.783 -112690.476 63627.259 -112500 63912.974 -112404.761 64103.45 -112404.761 64389.164 -112500 64484.402 -112595.238 M 65055.831 -112404.761 66198.688 -112404.761 M 65627.259 -114404.761 65627.259 -112404.761 M 67817.736 -114404.761 66865.355 -114404.761 66865.355 -112404.761 M 68484.402 -113642.857 70008.212 -113642.857 M 71341.545 -112404.761 71722.497 -112404.761 71912.974 -112500 72103.45 -112690.476 72198.688 -113071.428 72198.688 -113738.095 72103.45 -114119.047 71912.974 -114309.523 71722.497 -114404.761 71341.545 -114404.761 71151.069 -114309.523 70960.593 -114119.047 70865.355 -113738.095 70865.355 -113071.428 70960.593 -112690.476 71151.069 -112500 71341.545 -112404.761 M 73055.831 -114404.761 73055.831 -112404.761 74198.688 -114404.761 74198.688 -112404.761" fill="none" stroke-width="400"/><path d="M 70202.38 -68166.666 69726.19 -68500 M 70202.38 -68738.095 69202.38 -68738.095 69202.38 -68357.142 69250 -68261.904 69297.619 -68214.285 69392.857 -68166.666 69535.714 -68166.666 69630.952 -68214.285 69678.571 -68261.904 69726.19 -68357.142 69726.19 -68738.095 M 70202.38 -67214.285 70202.38 -67785.714 M 70202.38 -67500 69202.38 -67500 69345.238 -67595.238 69440.476 -67690.476 69488.095 -67785.714 M 67202.38 -68166.666 66726.19 -68500 M 67202.38 -68738.095 66202.38 -68738.095 66202.38 -68357.142 66250 -68261.904 66297.619 -68214.285 66392.857 -68166.666 66535.714 -68166.666 66630.952 -68214.285 66678.571 -68261.904 66726.19 -68357.142 66726.19 -68738.095 M 66297.619 -67785.714 66250 -67738.095 66202.38 -67642.857 66202.38 -67404.761 66250 -67309.523 66297.619 -67261.904 66392.857 -67214.285 66488.095 -67214.285 66630.952 -67261.904 67202.38 -67833.333 67202.38 -67214.285 M 104436.666 -71452.38 104436.666 -72166.666 104389.047 -72309.523 104293.809 -72404.761 104150.952 -72452.38 104055.714 -72452.38 M 104865.238 -71547.619 104912.857 -71500 105008.095 -71452.38 105246.19 -71452.38 105341.428 -71500 105389.047 -71547.619 105436.666 -71642.857 105436.666 -71738.095 105389.047 -71880.952 104817.619 -72452.38 105436.666 -72452.38 M 108488.095 -74000 108392.857 -73952.38 108250 -73952.38 108107.142 -74000 108011.904 -74095.238 107964.285 -74190.476 107916.666 -74380.952 107916.666 -74523.809 107964.285 -74714.285 108011.904 -74809.523 108107.142 -74904.761 108250 -74952.38 108345.238 -74952.38 108488.095 -74904.761 108535.714 -74857.142 108535.714 -74523.809 108345.238 -74523.809 M 108964.285 -74952.38 108964.285 -73952.38 109535.714 -74952.38 109535.714 -73952.38 M 110011.904 -74952.38 110011.904 -73952.38 110250 -73952.38 110392.857 -74000 110488.095 -74095.238 110535.714 -74190.476 110583.333 -74380.952 110583.333 -74523.809 110535.714 -74714.285 110488.095 -74809.523 110392.857 -74904.761 110250 -74952.38 110011.904 -74952.38 M 99233.333 -82552.38 99233.333 -81552.38 99614.285 -81552.38 99709.523 -81600 99757.142 -81647.619 99804.761 -81742.857 99804.761 -81885.714 99757.142 -81980.952 99709.523 -82028.571 99614.285 -82076.19 99233.333 -82076.19 M 100566.666 -82028.571 100233.333 -82028.571 M 100233.333 -82552.38 100233.333 -81552.38 100709.523 -81552.38 M 100995.238 -81552.38 101661.904 -81552.38 101233.333 -82552.38 M 108488.095 -76589 108392.857 -76541.38 108250 -76541.38 108107.142 -76589 108011.904 -76684.238 107964.285 -76779.476 107916.666 -76969.952 107916.666 -77112.809 107964.285 -77303.285 108011.904 -77398.523 108107.142 -77493.761 108250 -77541.38 108345.238 -77541.38 108488.095 -77493.761 108535.714 -77446.142 108535.714 -77112.809 108345.238 -77112.809 M 108964.285 -77541.38 108964.285 -76541.38 109535.714 -77541.38 109535.714 -76541.38 M 110011.904 -77541.38 110011.904 -76541.38 110250 -76541.38 110392.857 -76589 110488.095 -76684.238 110535.714 -76779.476 110583.333 -76969.952 110583.333 -77112.809 110535.714 -77303.285 110488.095 -77398.523 110392.857 -77493.761 110250 -77541.38 110011.904 -77541.38 M 108488.095 -79129 108392.857 -79081.38 108250 -79081.38 108107.142 -79129 108011.904 -79224.238 107964.285 -79319.476 107916.666 -79509.952 107916.666 -79652.809 107964.285 -79843.285 108011.904 -79938.523 108107.142 -80033.761 108250 -80081.38 108345.238 -80081.38 108488.095 -80033.761 108535.714 -79986.142 108535.714 -79652.809 108345.238 -79652.809 M 108964.285 -80081.38 108964.285 -79081.38 109535.714 -80081.38 109535.714 -79081.38 M 110011.904 -80081.38 110011.904 -79081.38 110250 -79081.38 110392.857 -79129 110488.095 -79224.238 110535.714 -79319.476 110583.333 -79509.952 110583.333 -79652.809 110535.714 -79843.285 110488.095 -79938.523 110392.857 -80033.761 110250 -80081.38 110011.904 -80081.38 M 108488.095 -81669 108392.857 -81621.38 108250 -81621.38 108107.142 -81669 108011.904 -81764.238 107964.285 -81859.476 107916.666 -82049.952 107916.666 -82192.809 107964.285 -82383.285 108011.904 -82478.523 108107.142 -82573.761 108250 -82621.38 108345.238 -82621.38 108488.095 -82573.761 108535.714 -82526.142 108535.714 -82192.809 108345.238 -82192.809 M 108964.285 -82621.38 108964.285 -81621.38 109535.714 -82621.38 109535.714 -81621.38 M 110011.904 -82621.38 110011.904 -81621.38 110250 -81621.38 110392.857 -81669 110488.095 -81764.238 110535.714 -81859.476 110583.333 -82049.952 110583.333 -82192.809 110535.714 -82383.285 110488.095 -82478.523 110392.857 -82573.761 110250 -82621.38 110011.904 -82621.38 M 99233.333 -77452.38 99233.333 -76452.38 99614.285 -76452.38 99709.523 -76500 99757.142 -76547.619 99804.761 -76642.857 99804.761 -76785.714 99757.142 -76880.952 99709.523 -76928.571 99614.285 -76976.19 99233.333 -76976.19 M 100566.666 -76928.571 100233.333 -76928.571 M 100233.333 -77452.38 100233.333 -76452.38 100709.523 -76452.38 M 101566.666 -76452.38 101090.476 -76452.38 101042.857 -76928.571 101090.476 -76880.952 101185.714 -76833.333 101423.809 -76833.333 101519.047 -76880.952 101566.666 -76928.571 101614.285 -77023.809 101614.285 -77261.904 101566.666 -77357.142 101519.047 -77404.761 101423.809 -77452.38 101185.714 -77452.38 101090.476 -77404.761 101042.857 -77357.142 M 99233.333 -74952.38 99233.333 -73952.38 99614.285 -73952.38 99709.523 -74000 99757.142 -74047.619 99804.761 -74142.857 99804.761 -74285.714 99757.142 -74380.952 99709.523 -74428.571 99614.285 -74476.19 99233.333 -74476.19 M 100566.666 -74428.571 100233.333 -74428.571 M 100233.333 -74952.38 100233.333 -73952.38 100709.523 -73952.38 M 101519.047 -74285.714 101519.047 -74952.38 M 101280.952 -73904.761 101042.857 -74619.047 101661.904 -74619.047 M 99233.333 -80052.38 99233.333 -79052.38 99614.285 -79052.38 99709.523 -79100 99757.142 -79147.619 99804.761 -79242.857 99804.761 -79385.714 99757.142 -79480.952 99709.523 -79528.571 99614.285 -79576.19 99233.333 -79576.19 M 100566.666 -79528.571 100233.333 -79528.571 M 100233.333 -80052.38 100233.333 -79052.38 100709.523 -79052.38 M 101519.047 -79052.38 101328.571 -79052.38 101233.333 -79100 101185.714 -79147.619 101090.476 -79290.476 101042.857 -79480.952 101042.857 -79861.904 101090.476 -79957.142 101138.095 -80004.761 101233.333 -80052.38 101423.809 -80052.38 101519.047 -80004.761 101566.666 -79957.142 101614.285 -79861.904 101614.285 -79623.809 101566.666 -79528.571 101519.047 -79480.952 101423.809 -79433.333 101233.333 -79433.333 101138.095 -79480.952 101090.476 -79528.571 101042.857 -79623.809" fill="none" stroke-width="150"/><path d="M 72015 -135249.669 72015 -120709.669 M 81960 -120248.344 81710 -119815.331 M 102985 -120709.669 102985 -135249.669 M 82210 -119815.331 81960 -120248.344 M 81710 -119815.331 82210 -119815.331 M 72015 -120709.669 102985 -120709.669 M 67210 -83580 67210 -83736 M 67210 -81264 67210 -81420 M 67729.039 -83580 A 1499.9999345 1499.9999345 0 0 1 69811.13 -83579.837 M 69811.13 -81420.163 A 1499.9998745 1499.9998745 0 0 1 67729.039 -81420 M 67210 -83735.516 A 1989.9999463 1989.9999463 0 0 1 70442.335 -83578.608 M 70442.335 -81421.392 A 1989.9998919 1989.9998919 0 0 1 67210 -81264.484 M 96580 -77230 96580 -46510 78460 -46510 M 78460 -77230 96580 -77230 M 93580 -77170 93580 -46570 M 81460 -46570 81460 -77170 M 86520 -46570 81460 -46570 M 78460 -46510 78460 -77230 M 81460 -77170 93580 -77170 M 93580 -46570 88520 -46570 M 86520 -46570 A 1000 1000 0 0 1 88520 -46570 M 111750 -66250 111750 -61750 M 105250 -61750 105250 -66250 M 107750 -67500 109250 -67500 M 109250 -60500 107750 -60500 M 67210 -107764 67210 -107920 M 67210 -110080 67210 -110236 M 67729.039 -110080 A 1499.9999345 1499.9999345 0 0 1 69811.13 -110079.837 M 69811.13 -107920.163 A 1499.9998745 1499.9998745 0 0 1 67729.039 -107920 M 67210 -110235.516 A 1989.9999463 1989.9999463 0 0 1 70442.335 -110078.608 M 70442.335 -107921.392 A 1989.9998919 1989.9998919 0 0 1 67210 -107764.484 M 68380 -64730 68380 -71270 71120 -71270 M 69750 -63960 69750 -64730 M 71120 -71270 71120 -64730 M 69750 -72040 69750 -71270 M 71120 -64730 68380 -64730 M 68120 -71270 68120 -64730 M 66750 -63960 66750 -64730 M 65380 -64730 65380 -71270 M 68120 -64730 65380 -64730 M 65380 -71270 68120 -71270 M 66750 -72040 66750 -71270" fill="none" stroke-width="120"/><path d="M 71571.057 -95711.131 71845.872 -95089.262 72174.229 -94480.459 72555.154 -93886.143 72987.674 -93307.734 73470.815 -92746.651 74003.604 -92204.315 74585.067 -91682.146 75114.285 -91257.181 75493.419 -90978.147 75880.332 -90715.04 76281.748 -90464.198 76704.389 -90221.962 77154.978 -89984.67 77640.237 -89748.662 78166.889 -89510.278 78741.656 -89265.857 78863.199 -89215.834 80047.858 -88759.114 81265.016 -88345.016 82507.013 -87975.465 83766.19 -87652.387 85034.886 -87377.705 86305.441 -87153.345 87570.195 -86981.232 87900 -86944.979 88306.614 -86907.771 88758.741 -86875.7 89244.955 -86849.067 89753.831 -86828.17 90273.941 -86813.31 90793.862 -86804.786 91302.166 -86802.898 91787.43 -86807.946 92238.226 -86820.229 92400 -86826.943 93716.886 -86915.908 95034.908 -87061.368 96351.5 -87262.733 97664.098 -87519.409 98970.137 -87830.806 100267.052 -88196.331 101552.278 -88615.393 102823.25 -89087.4 103628.571 -89417.237 103826.681 -89503.914 104052.694 -89607.047 104296.885 -89721.837 104549.53 -89843.486 104800.907 -89967.196 105041.291 -90088.169 105260.957 -90201.607 105450.183 -90302.712 105599.245 -90386.685 105628.571 -90404.122 106302.475 -90836.441 106937.819 -91296.424 107532.948 -91781.959 108086.207 -92290.932 108595.943 -92821.229 109060.5 -93370.737 109478.223 -93937.343 109847.46 -94518.933 110166.554 -95113.394 110433.851 -95718.611 110647.698 -96332.473 110806.439 -96952.865 110824.386 -97041.217 110863.889 -97247.825 110894.774 -97426.471 110918.065 -97589.252 110934.787 -97748.262 110945.965 -97915.6 110952.624 -98103.359 110955.789 -98323.637 110956.485 -98588.53 110956.476 -98600.113 110954.032 -98912.83 110946.296 -99187.342 110931.788 -99438.403 110909.03 -99680.765 110876.542 -99929.183 110832.846 -100198.408 110776.462 -100503.194 110754.32 -100616.626 110566.323 -101426.283 110323.009 -102232.548 110026.203 -103031.654 109677.729 -103819.837 109279.412 -104593.328 108833.076 -105348.36 108340.547 -106081.169 107803.648 -106787.986 107707.864 -106905.569 107367.244 -107303.62 107009.462 -107692.036 106639.379 -108066.786 106261.86 -108423.837 105881.766 -108759.157 105503.961 -109068.716 105133.307 -109348.481 104774.668 -109594.42 104432.906 -109802.501 104112.884 -109968.694 103906.806 -110057.02 103584.917 -110153.827 103234.466 -110209.951 102866.464 -110225.98 102491.925 -110202.497 102121.86 -110140.088 101767.281 -110039.34 101496.496 -109928.855 101238.69 -109795.374 101016.42 -109652.466 100808.69 -109485.244 100628.571 -109313.582 100487.504 -109163.207 100359.237 -109008.193 100237.987 -108839.613 100117.97 -108648.544 99993.403 -108426.061 99858.504 -108163.238 99782.304 -108007.565 99597.534 -107625.774 99434.86 -107291.15 99291.867 -106999.179 99166.146 -106745.347 99055.285 -106525.141 98956.871 -106334.048 98868.495 -106167.554 98787.744 -106021.146 98712.207 -105890.31 98639.472 -105770.532 98567.129 -105657.301 98492.764 -105546.101 98413.968 -105432.42 98382.959 -105388.474 98249.791 -105216.576 98084.011 -105027.463 97897.535 -104832.869 97702.279 -104644.529 97510.16 -104474.177 97333.095 -104333.55 97258.228 -104280.903 96846.667 -104034.08 96383.541 -103807.389 95871.02 -103601.507 95311.276 -103417.109 94706.481 -103254.872 94058.806 -103115.473 93370.421 -102999.587 92971.428 -102945.644 92836.959 -102932.881 92653.374 -102921.247 92428.691 -102910.848 92170.928 -102901.791 91888.102 -102894.181 91588.231 -102888.124 91279.333 -102883.727 90969.427 -102881.096 90666.528 -102880.337 90378.657 -102881.556 90113.829 -102884.859 89880.063 -102890.352 89685.378 -102898.142 89628.571 -102901.392 89004.042 -102955.137 88388.606 -103036.262 87787.91 -103143.172 87207.6 -103274.273 86653.323 -103427.971 86130.726 -103602.672 85645.453 -103796.781 85203.153 -104008.705 84809.472 -104236.848 84741.651 -104281.219 84566.631 -104410.754 84372.182 -104576.093 84170.346 -104765.29 83973.166 -104966.401 83792.684 -105167.48 83640.942 -105356.582 83598.98 -105414.675 83525.412 -105520.578 83458.207 -105619.28 83395.051 -105715.12 83333.628 -105812.434 83271.625 -105915.559 83206.725 -106028.832 83136.614 -106156.59 83058.978 -106303.172 82971.502 -106472.912 82871.87 -106670.149 82757.769 -106899.221 82626.883 -107164.463 82476.898 -107470.213 82305.498 -107820.808 82205.811 -108025 82043.244 -108347.441 81892.164 -108622.585 81747.175 -108857.788 81602.881 -109060.409 81453.888 -109237.803 81294.799 -109397.328 81120.219 -109546.34 81050.291 -109600.53 80706.305 -109825.483 80335.258 -110001.028 79940.098 -110126.446 79523.769 -110201.015 79089.219 -110224.013 78639.393 -110194.72 78628.571 -110193.386 78394.568 -110149.988 78151.164 -110075.663 77892.397 -109967.721 77612.299 -109823.47 77304.907 -109640.223 77085.714 -109497.637 76531.998 -109098.994 75983.04 -108648.703 75443.598 -108152.327 74918.431 -107615.423 74412.295 -107043.554 73929.949 -106442.279 73476.151 -105817.158 73055.659 -105173.753 72673.231 -104517.622 72435.544 -104063.401 72114.848 -103376.042 71834.199 -102681.816 71594.316 -101984.801 71395.92 -101289.075 71239.731 -100598.716 71126.469 -99917.802 71056.855 -99250.413 71031.609 -98600.625 71051.452 -97972.518 71117.102 -97370.169 71185.944 -96988.386 71191.245 -96967.681 74303.536 -96967.681 74303.608 -97012.613 74305.071 -97249.475 74308.652 -97440.51 74315.053 -97597.078 74324.974 -97730.541 74339.115 -97852.261 74358.177 -97973.6 74365.346 -98013.739 74500.845 -98603.993 74686.529 -99167.608 74921.899 -99703.625 75206.46 -100211.085 75539.713 -100689.03 75921.163 -101136.502 76056.035 -101275.816 76495.404 -101676.737 76962.614 -102028.322 77455.217 -102329.745 77970.764 -102580.177 78506.806 -102778.793 79060.894 -102924.765 79630.58 -103017.265 80213.413 -103055.468 80806.947 -103038.545 81166.207 -103001.715 81727.621 -102900.764 82268.863 -102748.305 82787.549 -102547.194 83281.295 -102300.289 83747.717 -102010.445 84184.432 -101680.519 84589.056 -101313.368 84959.205 -100911.849 85292.495 -100478.818 85586.542 -100017.131 85838.963 -99529.645 86047.374 -99019.218 86074.674 -98929.827 96046.449 -98929.827 96055.268 -99119.862 96077.617 -99279.051 96082.633 -99300.901 96168.105 -99557.305 96293.561 -99810.908 96449.562 -100046.595 96626.671 -100249.255 96734.845 -100345.311 96884.342 -100449.935 97059.54 -100550.302 97241.875 -100637.288 97412.785 -100701.771 97514.285 -100728.362 97612.859 -100748.003 97695.507 -100765.067 97728.571 -100772.28 97808.891 -100779.968 97928.309 -100778.58 98069.739 -100769.482 98216.097 -100754.042 98350.296 -100733.629 98432.486 -100715.93 98697.59 -100621.691 98954.793 -100481.959 99193.246 -100305.362 99402.099 -100100.527 99570.501 -99876.084 99636.464 -99758.559 99765.49 -99440.173 99838.188 -99118.291 99854.53 -98795.684 99814.49 -98475.124 99718.041 -98159.382 99653.364 -98013.739 99508.717 -97774.694 99320.208 -97549.399 99101.118 -97351.15 98864.727 -97193.241 98800 -97159.414 98495.449 -97039.627 98444.178 -97028.7 99830.794 -97028.7 99874.512 -97321.157 99962.783 -97604.211 100094.451 -97872.157 100268.359 -98119.294 100483.352 -98339.918 100738.275 -98528.325 100930.628 -98633.595 101143.581 -98722.19 101350.109 -98777.115 101570.53 -98802.324 101800 -98802.785 101999.833 -98789.016 102170.172 -98761.339 102334.7 -98716.435 102620.873 -98595.355 102883.17 -98426.207 103115.908 -98215.152 103313.405 -97968.351 103469.977 -97691.966 103579.943 -97392.159 103589.496 -97355.856 103620.98 -97172.559 103634.456 -96959.375 103629.985 -96739.944 103607.627 -96537.906 103587.152 -96440.541 103477.337 -96125.66 103322.634 -95842.482 103127.465 -95594.432 102912.648 -95399.793 103835.044 -95399.793 103852.501 -95721.024 103925.221 -96034.522 104052.266 -96336.293 104232.695 -96622.344 104240.222 -96632.363 104450.106 -96863.994 104695.214 -97054.588 104968.672 -97201.792 105263.606 -97303.252 105573.143 -97356.615 105890.407 -97359.527 106208.526 -97309.634 106214.285 -97308.221 106510.869 -97206.467 106783.29 -97056.82 107027.023 -96865.109 107237.539 -96637.165 107410.312 -96378.819 107540.815 -96095.901 107624.52 -95794.241 107656.9 -95479.671 107657.142 -95449.995 107629.456 -95143.074 107549.6 -94843.171 107422.381 -94558.081 107252.604 -94295.598 107045.075 -94063.516 106804.6 -93869.631 106614.073 -93758.219 106457.695 -93683.742 106323.982 -93631.093 106196.381 -93596.701 106058.335 -93576.991 105893.291 -93568.391 105728.571 -93567.116 105563.966 -93568.514 105442.042 -93572.82 105348.345 -93581.968 105268.422 -93597.895 105187.818 -93622.537 105114.285 -93649.389 104806.104 -93794.317 104534.447 -93980.6 104302.423 -94204.667 104113.141 -94462.943 103969.712 -94751.857 103875.244 -95067.835 103873.789 -95074.822 103835.044 -95399.793 102912.648 -95399.793 102896.25 -95384.935 102633.41 -95217.415 102343.365 -95095.297 102030.536 -95022.006 101728.571 -95000.636 101394.613 -95027.403 101086.048 -95105.266 100801.176 -95234.979 100538.296 -95417.295 100320.938 -95624.972 100124.558 -95878.9 99978.51 -96151.939 99881.637 -96438.388 99832.784 -96732.543 99830.794 -97028.7 98444.178 -97028.7 98186.542 -96973.792 97878.62 -96959.486 97577.023 -96994.284 97287.093 -97075.762 97014.17 -97201.494 96763.596 -97369.057 96540.712 -97576.026 96350.858 -97819.976 96199.377 -98098.483 96097.701 -98386.075 96068.014 -98541.79 96050.814 -98730.088 96046.449 -98929.827 86074.674 -98929.827 86209.391 -98488.704 86322.631 -97940.962 86384.709 -97378.847 86393.242 -96805.216 86390.78 -96740.879 86337.588 -96158.245 86230.731 -95590.18 86072.259 -95039.828 85864.219 -94510.33 85608.657 -94004.829 85307.622 -93526.469 84963.161 -93078.393 84577.321 -92663.742 84152.151 -92285.659 83772.714 -92008.031 96973.504 -92008.031 96983.579 -92212.526 97041.592 -92406.185 97143.075 -92580.82 97283.559 -92728.246 97458.578 -92840.276 97614.285 -92897.326 97664.146 -92907.634 97718.862 -92912.133 97783.032 -92909.568 97861.257 -92898.688 97958.139 -92878.237 98078.277 -92846.963 98226.272 -92803.613 98406.725 -92746.933 98624.236 -92675.671 98883.407 -92588.572 99188.836 -92484.383 99413.848 -92407.076 99690.191 -92311.63 99952.848 -92220.289 100196.341 -92135.003 100415.193 -92057.717 100603.925 -91990.379 100757.061 -91934.936 100869.123 -91893.337 100934.634 -91867.528 100946.082 -91862.317 101023.81 -91810.252 101112.326 -91733.26 101165.803 -91677.65 101283.774 -91505.114 101351.362 -91320.705 101371.966 -91131.881 101348.984 -90946.097 101285.816 -90770.814 101185.859 -90613.486 101052.512 -90481.574 100889.174 -90382.533 100699.243 -90323.822 100542.857 -90310.73 100497.023 -90312.641 100445.476 -90318.733 100383.444 -90330.478 100306.156 -90349.346 100208.84 -90376.809 100086.725 -90414.336 99935.039 -90463.4 99749.011 -90525.471 99523.871 -90602.02 99254.845 -90694.518 98937.164 -90804.435 98903.767 -90816.014 98625.379 -90913.03 98360.935 -91006.107 98115.815 -91093.289 97895.399 -91172.618 97705.068 -91242.138 97550.201 -91299.894 97436.179 -91343.928 97368.382 -91372.284 97354.259 -91379.487 97228.106 -91481.451 97114.522 -91615.914 97031.563 -91760.395 97015.836 -91800.886 96973.504 -92008.031 83772.714 -92008.031 83689.697 -91947.289 83192.007 -91651.773 83017.218 -91562.64 82536.54 -91347.882 82066.87 -91181.892 81595.819 -91061.801 81110.999 -90984.742 80600.02 -90947.847 80342.857 -90943.562 80007.57 -90949.24 79707.86 -90968.254 79423.202 -91003.047 79133.074 -91056.067 78850.236 -91121.41 78302.043 -91286.901 77776.188 -91503.242 77275.649 -91767.457 76803.405 -92076.573 76362.435 -92427.615 75955.716 -92817.608 75586.227 -93243.578 75256.947 -93702.55 74970.854 -94191.549 74730.927 -94707.602 74540.143 -95247.733 74472.149 -95493.773 74418.176 -95715.795 74376.677 -95911.349 74346.145 -96094.024 74325.073 -96277.407 74311.953 -96475.086 74305.276 -96700.648 74303.536 -96967.681 71191.245 -96967.681 71350.756 -96344.645 71571.057 -95711.131"/><path d="M 76702.644 -96984.009 76703.329 -96788.216 76705.661 -96637.12 76710.901 -96518.215 76720.31 -96418.991 76735.148 -96326.942 76756.675 -96229.558 76786.152 -96114.333 76792.84 -96089.074 76937.047 -95653.735 77129.64 -95245.679 77367.245 -94868.063 77646.486 -94524.039 77963.988 -94216.761 78316.376 -93949.385 78700.275 -93725.064 79112.31 -93546.953 79549.105 -93418.205 79680.507 -93390.44 79861.383 -93364.98 80079.868 -93348.83 80317.158 -93342.191 80554.449 -93345.267 80772.937 -93358.257 80928.571 -93377.043 81364.09 -93475.701 81778.778 -93625.529 82169.177 -93823.195 82531.829 -94065.37 82863.275 -94348.723 83160.056 -94669.925 83418.713 -95025.644 83635.788 -95412.55 83807.822 -95827.313 83931.357 -96266.602 83931.861 -96268.919 83959.816 -96445.262 83978.12 -96661.388 83986.771 -96900.697 83985.772 -97146.587 83975.121 -97382.457 83954.818 -97591.705 83931.861 -97727.703 83807.218 -98172.716 83633.983 -98591.304 83415.267 -98980.416 83154.179 -99337.001 82853.829 -99658.007 82517.328 -99940.385 82147.785 -100181.081 81748.31 -100377.047 81322.014 -100525.229 81004.32 -100599.843 80795.856 -100630.623 80560.972 -100650.922 80321.126 -100659.846 80097.773 -100656.5 79942.857 -100644.081 79490.402 -100560.921 79058.425 -100426.319 78650.52 -100243.089 78270.28 -100014.045 77921.3 -99742 77607.172 -99429.768 77331.491 -99080.162 77097.85 -98695.997 76909.842 -98280.085 76904.105 -98264.915 76833.299 -98063.378 76780.386 -97877.752 76743.114 -97693.721 76719.233 -97496.97 76706.49 -97273.184 76702.787 -97018.514 77082.941 -97018.514 77084.021 -97195.42 77087.353 -97361.507 77092.954 -97507.063 77100.844 -97622.376 77111.04 -97697.733 77120 -97721.982 77146.367 -97731.851 77206.42 -97739.875 77304.05 -97746.186 77443.151 -97750.916 77627.615 -97754.196 77861.335 -97756.157 78148.202 -97756.93 78155.714 -97756.935 78442.1 -97757.407 78677.331 -97759.025 78867.393 -97762.679 79018.271 -97769.261 79135.953 -97779.664 79226.425 -97794.778 79295.674 -97815.495 79349.685 -97842.707 79394.446 -97877.305 79435.943 -97920.182 79462.921 -97951.627 79497.727 -97998.638 79526.198 -98052.773 79548.95 -98119.952 79566.599 -98206.1 79579.761 -98317.138 79589.054 -98458.989 79595.093 -98637.577 79598.494 -98858.824 79599.874 -99128.652 79600 -99268.938 79600.575 -99495.123 79602.206 -99702.86 79604.754 -99885.272 79608.078 -100035.485 79612.038 -100146.624 79616.493 -100211.813 79619.527 -100226.231 79652.33 -100231.291 79734.348 -100235.261 79857.665 -100238.013 80014.36 -100239.419 80196.515 -100239.351 80355.241 -100238.149 81071.428 -100230.518 81086.008 -99186.487 81090.04 -98945.561 81095.072 -98721.14 81100.856 -98520.034 81107.142 -98349.053 81113.679 -98215.006 81120.219 -98124.702 81126.372 -98085.248 81220.541 -97934.341 81344.976 -97830.266 81382.887 -97810.809 81417.949 -97796.645 81458.507 -97785.214 81510.75 -97776.222 81580.868 -97769.376 81675.048 -97764.38 81799.48 -97760.941 81960.351 -97758.763 82163.852 -97757.553 82416.17 -97757.017 82515.714 -97756.935 82805.956 -97756.2 83042.941 -97754.303 83230.547 -97751.115 83372.651 -97746.506 83473.13 -97740.348 83535.86 -97732.512 83564.72 -97722.868 83565.714 -97721.982 83577.586 -97691.027 83586.721 -97622.025 83593.317 -97510.802 83597.571 -97353.184 83599.68 -97145 83600 -96998.311 83599.051 -96758.654 83596.074 -96572.002 83590.871 -96434.181 83583.243 -96341.019 83572.994 -96288.343 83565.714 -96274.64 83539.524 -96264.827 83479.891 -96256.864 83382.911 -96250.624 83244.679 -96245.978 83061.292 -96242.797 82828.847 -96240.953 82543.438 -96240.318 82521.939 -96240.316 82237.588 -96240.002 82004.367 -96238.632 81816.262 -96235.557 81667.262 -96230.133 81551.353 -96221.714 81462.524 -96209.652 81394.763 -96193.303 81342.056 -96172.019 81298.392 -96145.155 81257.758 -96112.065 81248.12 -96103.425 81211.411 -96068.837 81181.298 -96034.118 81157.039 -95993.432 81137.892 -95940.939 81123.117 -95870.801 81111.971 -95777.179 81103.714 -95654.235 81097.605 -95496.13 81092.9 -95297.026 81088.861 -95051.083 81085.714 -94824.437 81071.428 -93766.104 79614.285 -93766.104 79600 -94810.136 79596.157 -95082.636 79592.568 -95304.046 79588.825 -95480.48 79584.518 -95618.051 79579.241 -95722.873 79572.584 -95801.058 79564.139 -95858.721 79553.497 -95901.975 79540.25 -95936.933 79523.99 -95969.708 79522.316 -95972.85 79457.404 -96063.518 79374.097 -96142.682 79350.888 -96158.773 79321.712 -96176.289 79292.16 -96190.514 79256.195 -96201.846 79207.783 -96210.683 79140.889 -96217.421 79049.479 -96222.459 78927.516 -96226.195 78768.967 -96229.025 78567.796 -96231.348 78317.969 -96233.562 78201.296 -96234.52 77883.17 -96237.98 77619.72 -96242.708 77411.438 -96248.686 77258.818 -96255.897 77162.351 -96264.322 77122.725 -96273.777 77110.678 -96311.636 77100.774 -96396.95 77093.029 -96520.007 77087.464 -96671.095 77084.095 -96840.501 77082.941 -97018.514 76702.787 -97018.514 76702.635 -97008.046 76702.644 -96984.009"/><path d="M 102170 -75770 104770 -75770 M 102170 -74500 102170 -73170 M 107370 -73170 107370 -83450 M 104770 -75770 104770 -73170 M 102170 -83450 107370 -83450 M 102170 -73170 103500 -73170 M 104770 -73170 107370 -73170 M 102170 -75770 102170 -83450" fill="none" stroke-width="120"/></g></g><g id="P55AUkp-Wqv-3mLsmqFH_top_drill1" transform="scale(25.4,25.4)"><use xlink:href="#pYfbZbx9w-wLkoA2Thdt_pad-1" x="2559.1" y="-2007.9"/><use xlink:href="#pYfbZbx9w-wLkoA2Thdt_pad-1" x="2559.1" y="-5157.5"/><use xlink:href="#pYfbZbx9w-wLkoA2Thdt_pad-1" x="4330.7" y="-2007.9"/><use xlink:href="#pYfbZbx9w-wLkoA2Thdt_pad-1" x="4330.7" y="-5157.5"/></g><g id="P55AUkp-Wqv-3mLsmqFH_top_drill2" transform="scale(25.4,25.4)"><use xlink:href="#vOHD5NeBREhb_SnDbM-A_pad-1" x="3086.6" y="-4685"/><use xlink:href="#vOHD5NeBREhb_SnDbM-A_pad-1" x="3640" y="-4630"/><use xlink:href="#vOHD5NeBREhb_SnDbM-A_pad-2" x="2628" y="-2477.2"/><use xlink:href="#vOHD5NeBREhb_SnDbM-A_pad-2" x="2628" y="-2877.2"/><use xlink:href="#vOHD5NeBREhb_SnDbM-A_pad-2" x="2746.1" y="-2477.2"/><use xlink:href="#vOHD5NeBREhb_SnDbM-A_pad-2" x="2746.1" y="-2877.2"/><use xlink:href="#vOHD5NeBREhb_SnDbM-A_pad-2" x="3145.7" y="-1885.8"/><use xlink:href="#vOHD5NeBREhb_SnDbM-A_pad-2" x="3145.7" y="-1985.8"/><use xlink:href="#vOHD5NeBREhb_SnDbM-A_pad-2" x="3145.7" y="-2085.8"/><use xlink:href="#vOHD5NeBREhb_SnDbM-A_pad-2" x="3145.7" y="-2185.8"/><use xlink:href="#vOHD5NeBREhb_SnDbM-A_pad-2" x="3145.7" y="-2285.8"/><use xlink:href="#vOHD5NeBREhb_SnDbM-A_pad-2" x="3145.7" y="-2385.8"/><use xlink:href="#vOHD5NeBREhb_SnDbM-A_pad-2" x="3145.7" y="-2485.8"/><use xlink:href="#vOHD5NeBREhb_SnDbM-A_pad-2" x="3145.7" y="-2585.8"/><use xlink:href="#vOHD5NeBREhb_SnDbM-A_pad-2" x="3145.7" y="-2685.8"/><use xlink:href="#vOHD5NeBREhb_SnDbM-A_pad-2" x="3145.7" y="-2785.8"/><use xlink:href="#vOHD5NeBREhb_SnDbM-A_pad-2" x="3145.7" y="-2885.8"/><use xlink:href="#vOHD5NeBREhb_SnDbM-A_pad-2" x="3145.7" y="-2985.8"/><use xlink:href="#vOHD5NeBREhb_SnDbM-A_pad-2" x="3745.7" y="-1885.8"/><use xlink:href="#vOHD5NeBREhb_SnDbM-A_pad-2" x="3745.7" y="-1985.8"/><use xlink:href="#vOHD5NeBREhb_SnDbM-A_pad-2" x="3745.7" y="-2085.8"/><use xlink:href="#vOHD5NeBREhb_SnDbM-A_pad-2" x="3745.7" y="-2185.8"/><use xlink:href="#vOHD5NeBREhb_SnDbM-A_pad-2" x="3745.7" y="-2285.8"/><use xlink:href="#vOHD5NeBREhb_SnDbM-A_pad-2" x="3745.7" y="-2385.8"/><use xlink:href="#vOHD5NeBREhb_SnDbM-A_pad-2" x="3745.7" y="-2485.8"/><use xlink:href="#vOHD5NeBREhb_SnDbM-A_pad-2" x="3745.7" y="-2585.8"/><use xlink:href="#vOHD5NeBREhb_SnDbM-A_pad-2" x="3745.7" y="-2685.8"/><use xlink:href="#vOHD5NeBREhb_SnDbM-A_pad-2" x="3745.7" y="-2785.8"/><use xlink:href="#vOHD5NeBREhb_SnDbM-A_pad-2" x="3745.7" y="-2885.8"/><use xlink:href="#vOHD5NeBREhb_SnDbM-A_pad-2" x="3745.7" y="-2985.8"/><use xlink:href="#vOHD5NeBREhb_SnDbM-A_pad-3" x="2657.5" y="-3248"/><use xlink:href="#vOHD5NeBREhb_SnDbM-A_pad-3" x="2657.5" y="-4291.3"/><use xlink:href="#vOHD5NeBREhb_SnDbM-A_pad-3" x="2757.5" y="-3248"/><use xlink:href="#vOHD5NeBREhb_SnDbM-A_pad-3" x="2757.5" y="-4291.3"/><use xlink:href="#vOHD5NeBREhb_SnDbM-A_pad-4" x="3226.8" y="-4825.6"/><use xlink:href="#vOHD5NeBREhb_SnDbM-A_pad-4" x="3281.3" y="-4937.4"/><use xlink:href="#vOHD5NeBREhb_SnDbM-A_pad-4" x="3335.8" y="-4825.6"/><use xlink:href="#vOHD5NeBREhb_SnDbM-A_pad-4" x="3390.4" y="-4937.4"/><use xlink:href="#vOHD5NeBREhb_SnDbM-A_pad-4" x="3444.9" y="-4825.6"/><use xlink:href="#vOHD5NeBREhb_SnDbM-A_pad-4" x="3499.4" y="-4937.4"/><use xlink:href="#vOHD5NeBREhb_SnDbM-A_pad-4" x="3553.9" y="-4825.6"/><use xlink:href="#vOHD5NeBREhb_SnDbM-A_pad-4" x="3608.5" y="-4937.4"/><use xlink:href="#vOHD5NeBREhb_SnDbM-A_pad-4" x="3663" y="-4825.6"/><use xlink:href="#vOHD5NeBREhb_SnDbM-A_pad-4" x="4074.8" y="-2933.1"/><use xlink:href="#vOHD5NeBREhb_SnDbM-A_pad-4" x="4074.8" y="-3033.1"/><use xlink:href="#vOHD5NeBREhb_SnDbM-A_pad-4" x="4074.8" y="-3133.1"/><use xlink:href="#vOHD5NeBREhb_SnDbM-A_pad-4" x="4074.8" y="-3233.1"/><use xlink:href="#vOHD5NeBREhb_SnDbM-A_pad-4" x="4174.8" y="-2933.1"/><use xlink:href="#vOHD5NeBREhb_SnDbM-A_pad-4" x="4174.8" y="-3033.1"/><use xlink:href="#vOHD5NeBREhb_SnDbM-A_pad-4" x="4174.8" y="-3133.1"/><use xlink:href="#vOHD5NeBREhb_SnDbM-A_pad-4" x="4174.8" y="-3233.1"/><use xlink:href="#vOHD5NeBREhb_SnDbM-A_pad-5" x="4183.1" y="-2391.7"/><use xlink:href="#vOHD5NeBREhb_SnDbM-A_pad-5" x="4183.1" y="-2647.6"/><use xlink:href="#vOHD5NeBREhb_SnDbM-A_pad-5" x="4360.2" y="-2391.7"/><use xlink:href="#vOHD5NeBREhb_SnDbM-A_pad-5" x="4360.2" y="-2647.6"/><use xlink:href="#vOHD5NeBREhb_SnDbM-A_pad-6" x="2952.8" y="-4881.5"/><use xlink:href="#vOHD5NeBREhb_SnDbM-A_pad-6" x="3937" y="-4881.5"/></g><clipPath id="P55AUkp-Wqv-3mLsmqFH_top_outline"><path d="M 110000 -136000 A 5000 5000 0 0 1 115000 -131000 L 115000 -51000 A 5000 5000 0 0 1 110000 -46000 L 65000 -46000 A 5000 5000 0 0 1 60000 -51000 L 60000 -131000 A 5000 5000 0 0 1 65000 -136000 L 110000 -136000" fill="none" stroke-width="100"/></clipPath><mask id="P55AUkp-Wqv-3mLsmqFH_top_mech-mask"><g fill="#000" stroke="#000"><rect x="60000" y="-136000" width="55000" height="90000" fill="#fff"/><use xlink:href="#P55AUkp-Wqv-3mLsmqFH_top_drill1"/><use xlink:href="#P55AUkp-Wqv-3mLsmqFH_top_drill2"/></g></mask><mask id="P55AUkp-Wqv-3mLsmqFH_top_cf-mask"><g fill="#fff" stroke="#fff"><use xlink:href="#P55AUkp-Wqv-3mLsmqFH_top_soldermask"/></g></mask><mask id="P55AUkp-Wqv-3mLsmqFH_top_sm-mask"><g fill="#000" stroke="#000"><rect x="60000" y="-136000" width="55000" height="90000" fill="#fff"/><use xlink:href="#P55AUkp-Wqv-3mLsmqFH_top_soldermask"/></g></mask></defs><g transform="translate(0,-182000) scale(1,-1)"><g mask="url(#P55AUkp-Wqv-3mLsmqFH_top_mech-mask)" clip-path="url(#P55AUkp-Wqv-3mLsmqFH_top_outline)"><rect x="60000" y="-136000" width="55000" height="90000" fill="currentColor" class="P55AUkp-Wqv-3mLsmqFH_fr4"/><use xlink:href="#P55AUkp-Wqv-3mLsmqFH_top_copper" fill="currentColor" stroke="currentColor" class="P55AUkp-Wqv-3mLsmqFH_cu"/><use xlink:href="#P55AUkp-Wqv-3mLsmqFH_top_copper" fill="currentColor" stroke="currentColor" class="P55AUkp-Wqv-3mLsmqFH_cf" mask="url(#P55AUkp-Wqv-3mLsmqFH_top_cf-mask)"/><g mask="url(#P55AUkp-Wqv-3mLsmqFH_top_sm-mask)"><rect x="60000" y="-136000" width="55000" height="90000" fill="currentColor" class="P55AUkp-Wqv-3mLsmqFH_sm"/><use xlink:href="#P55AUkp-Wqv-3mLsmqFH_top_silkscreen" fill="currentColor" stroke="currentColor" class="P55AUkp-Wqv-3mLsmqFH_ss"/></g></g></g></svg>